<svg width="152" height="42" viewBox="0 0 152 42" fill="none" xmlns="http://www.w3.org/2000/svg">
<path fill-rule="evenodd" clip-rule="evenodd" d="M33.2973 2.41245V0H28.7244L0.295486 26.445C0.631566 28.2264 1.24518 29.9083 2.08908 31.4428L33.2973 2.41245ZM3.08869 33.0418C4.01845 34.3591 5.1312 35.5353 6.3894 36.5322L33.2973 11.5021V4.94131L3.08869 33.0418ZM12.8705 39.6727C11.1011 39.2574 9.43992 38.5569 7.93683 37.6217L33.2973 14.031V20.6714L12.8705 39.6727ZM15.1895 40.0443C15.6703 40.0866 16.157 40.1081 16.6486 40.1081C25.6556 40.1081 32.9921 32.8744 33.288 23.8378H33.2973V23.2703V23.2002L15.1895 40.0443ZM18.8956 0H26.0058L0.0233248 24.1693C0.0175923 24.0591 0.0129075 23.9486 0.00928037 23.8378H0V23.2703V17.577L18.8956 0ZM16.1771 0H9.15226L0 8.51356V15.0481L16.1771 0ZM0 0H6.43368L0 5.9847V0Z" fill="#FD4B1E"/>
<path d="M42.3782 33.8603V4.91895H52.7042C54.958 4.91895 56.8252 5.32876 58.3057 6.14839C59.7863 6.96801 60.8943 8.08911 61.6298 9.51169C62.3654 10.9248 62.7332 12.517 62.7332 14.2881C62.7332 16.0687 62.3607 17.6703 61.6157 19.0928C60.8802 20.506 59.7674 21.6271 58.2774 22.4561C56.7969 23.2758 54.9344 23.6856 52.6901 23.6856H45.5891V19.9831H52.294C53.7179 19.9831 54.8731 19.7382 55.7596 19.2483C56.646 18.749 57.2967 18.0707 57.7116 17.2134C58.1265 16.356 58.334 15.381 58.334 14.2881C58.334 13.1953 58.1265 12.2249 57.7116 11.377C57.2967 10.5292 56.6413 9.86497 55.7454 9.3845C54.859 8.90403 53.6897 8.6638 52.2374 8.6638H46.7491V33.8603H42.3782Z" fill="black"/>
<path d="M73.2479 34.3407C71.8711 34.3407 70.6263 34.0864 69.5136 33.5776C68.4008 33.0595 67.5191 32.3105 66.8684 31.3307C66.2271 30.351 65.9065 29.1498 65.9065 27.7272C65.9065 26.5025 66.1423 25.4944 66.6138 24.7031C67.0853 23.9117 67.7218 23.2852 68.5234 22.8236C69.325 22.3619 70.2208 22.0134 71.211 21.7778C72.2012 21.5423 73.2102 21.3633 74.2381 21.2408C75.5394 21.0901 76.5956 20.9676 77.4066 20.8734C78.2176 20.7698 78.807 20.6049 79.1748 20.3788C79.5425 20.1527 79.7264 19.7853 79.7264 19.2766V19.1776C79.7264 17.9435 79.3775 16.9873 78.6797 16.3089C77.9913 15.6306 76.9634 15.2915 75.596 15.2915C74.1721 15.2915 73.0499 15.6071 72.2294 16.2383C71.4184 16.8601 70.8574 17.5525 70.5462 18.3156L66.5713 17.4112C67.0429 16.0923 67.7313 15.0277 68.6366 14.2175C69.5513 13.3979 70.6027 12.8043 71.7909 12.4369C72.9791 12.0601 74.2286 11.8716 75.5394 11.8716C76.407 11.8716 77.3264 11.9753 78.2978 12.1825C79.2785 12.3804 80.1932 12.7478 81.0419 13.2848C81.9001 13.8218 82.6026 14.5896 83.1496 15.5882C83.6965 16.5774 83.97 17.8634 83.97 19.4461V33.8603H79.8396V30.8927H79.6698C79.3964 31.4391 78.9862 31.9761 78.4392 32.5037C77.8923 33.0312 77.1897 33.4693 76.3316 33.8179C75.4734 34.1665 74.4455 34.3407 73.2479 34.3407ZM74.1673 30.9492C75.3367 30.9492 76.3363 30.7184 77.1661 30.2567C78.0054 29.7951 78.642 29.1922 79.0757 28.4479C79.519 27.6942 79.7406 26.8887 79.7406 26.0314V23.2334C79.5897 23.3841 79.2974 23.5254 78.8636 23.6573C78.4392 23.7798 77.9536 23.8881 77.4066 23.9824C76.8597 24.0671 76.3268 24.1472 75.8082 24.2226C75.2895 24.2885 74.8557 24.3451 74.5068 24.3922C73.6864 24.4958 72.9367 24.6701 72.2577 24.915C71.5882 25.16 71.0507 25.5133 70.6452 25.9749C70.2491 26.4271 70.0511 27.03 70.0511 27.7837C70.0511 28.8295 70.4377 29.6208 71.211 30.1578C71.9843 30.6854 72.9697 30.9492 74.1673 30.9492Z" fill="black"/>
<path d="M91.1005 42C90.4686 42 89.8934 41.9482 89.3747 41.8446C88.8561 41.7504 88.4695 41.6467 88.2148 41.5337L89.2333 38.0715C90.0066 38.2787 90.695 38.3682 91.2985 38.34C91.902 38.3117 92.4348 38.0856 92.8969 37.6617C93.3684 37.2377 93.7833 36.5453 94.1417 35.5843L94.6651 34.1429L86.7154 12.1543H91.2419L96.7444 28.999H96.9707L102.473 12.1543H107.014L98.0599 36.7572C97.645 37.8878 97.1169 38.844 96.4757 39.6259C95.8344 40.4173 95.0706 41.0108 94.1841 41.4065C93.2977 41.8022 92.2698 42 91.1005 42Z" fill="black"/>
<path d="M119.215 34.2984C117.075 34.2984 115.231 33.8414 113.685 32.9276C112.148 32.0043 110.959 30.7089 110.12 29.0414C109.29 27.3645 108.875 25.4002 108.875 23.1486C108.875 20.9252 109.29 18.9657 110.12 17.2699C110.959 15.5741 112.129 14.2505 113.628 13.2989C115.137 12.3474 116.9 11.8716 118.918 11.8716C120.144 11.8716 121.332 12.0742 122.483 12.4793C123.633 12.8844 124.666 13.5203 125.581 14.3871C126.495 15.2538 127.217 16.3796 127.745 17.7645C128.273 19.14 128.537 20.8122 128.537 22.7812V24.2791H111.266V21.1137H124.393C124.393 20.002 124.166 19.0175 123.714 18.1602C123.261 17.2934 122.624 16.6104 121.804 16.1111C120.993 15.6118 120.041 15.3621 118.947 15.3621C117.758 15.3621 116.721 15.6542 115.835 16.2383C114.958 16.813 114.279 17.5666 113.798 18.4993C113.326 19.4226 113.091 20.4259 113.091 21.5093V23.9824C113.091 25.4332 113.345 26.6673 113.854 27.6848C114.373 28.7023 115.094 29.4795 116.019 30.0165C116.943 30.5441 118.022 30.8079 119.258 30.8079C120.059 30.8079 120.79 30.6948 121.45 30.4687C122.11 30.2332 122.681 29.8846 123.162 29.423C123.643 28.9614 124.011 28.3914 124.265 27.7131L128.268 28.4338C127.948 29.6114 127.373 30.643 126.543 31.5286C125.722 32.4047 124.69 33.0878 123.445 33.5776C122.209 34.0581 120.8 34.2984 119.215 34.2984Z" fill="black"/>
<path d="M140.965 34.2842C139.211 34.2842 137.646 33.8367 136.269 32.9417C134.901 32.0373 133.826 30.7513 133.044 29.0838C132.27 27.4069 131.884 25.3955 131.884 23.0497C131.884 20.7038 132.275 18.6972 133.058 17.0296C133.85 15.3621 134.934 14.0856 136.311 13.2C137.688 12.3144 139.249 11.8716 140.993 11.8716C142.342 11.8716 143.426 12.0978 144.247 12.55C145.077 12.9927 145.718 13.5109 146.17 14.1044C146.633 14.6979 146.991 15.2208 147.245 15.673H147.5V4.91895H151.73V33.8603H147.599V30.4828H147.245C146.991 30.9445 146.623 31.4721 146.142 32.0656C145.671 32.6591 145.02 33.1773 144.19 33.62C143.36 34.0628 142.285 34.2842 140.965 34.2842ZM141.899 30.6807C143.115 30.6807 144.143 30.3604 144.982 29.7197C145.831 29.0697 146.472 28.17 146.906 27.0206C147.349 25.8713 147.571 24.5335 147.571 23.0073C147.571 21.4999 147.354 20.181 146.92 19.0505C146.486 17.9199 145.85 17.0391 145.011 16.4079C144.171 15.7767 143.134 15.4611 141.899 15.4611C140.626 15.4611 139.565 15.7908 138.716 16.4503C137.867 17.1097 137.226 18.0094 136.792 19.1494C136.368 20.2893 136.156 21.5753 136.156 23.0073C136.156 24.4581 136.373 25.7629 136.806 26.9217C137.24 28.0805 137.881 28.999 138.73 29.6774C139.588 30.3462 140.644 30.6807 141.899 30.6807Z" fill="black"/>
</svg>
