<svg width="56" height="22" viewBox="0 0 56 22" fill="none" xmlns="http://www.w3.org/2000/svg">
<path d="M0 0H1.09157V18.8833H0V0Z" fill="#191919"/>
<path d="M1.55939 0H2.65096V16.503H1.55939V0Z" fill="#191919"/>
<path d="M3.11877 0H4.21034V18.8833H3.11877V0Z" fill="#191919"/>
<path d="M7.32912 0H6.23755V16.1963L7.32912 18.4994V0Z" fill="#191919"/>
<path d="M5.76973 1.58683H4.67816V12.577L5.76973 14.8802V1.58683Z" fill="#191919"/>
<path d="M12.4751 16.9756V18.8833H13.5574L12.4751 16.9756Z" fill="#191919"/>
<path d="M13.5667 16.678V16.6617H13.5574L13.5667 16.678Z" fill="#191919"/>
<path d="M10.9157 14.2272V18.8833H12.0073V16.1511L10.9157 14.2272Z" fill="#191919"/>
<path d="M12.4751 9.30858C13.1619 8.34236 13.5667 7.15495 13.5667 5.87134C13.5667 4.58772 13.1619 3.40032 12.4751 2.4341V9.30858Z" fill="#191919"/>
<path d="M10.4479 11.0875V0.655044C10.1029 0.473128 9.7376 0.325609 9.35632 0.21695V18.8833H10.4479V13.4027L9.37919 11.519C9.75221 11.411 10.1098 11.2658 10.4479 11.0875Z" fill="#191919"/>
<path d="M7.79694 3.17366H8.88851V18.8833H7.79694V3.17366Z" fill="#191919"/>
<path d="M12.0073 1.8569V9.88576C11.6829 10.2379 11.3163 10.5494 10.9157 10.8118V0.930869C11.3163 1.19326 11.6829 1.50472 12.0073 1.8569Z" fill="#191919"/>
<path d="M22.1833 17.1914V2.01685H28.4947C29.1627 2.01685 29.774 2.15933 30.3283 2.4443C30.8827 2.71502 31.366 3.08547 31.7782 3.55567C32.1905 4.01162 32.5103 4.53168 32.7377 5.11587C32.9652 5.6858 33.0789 6.26998 33.0789 6.86841C33.0789 7.69482 32.8941 8.4856 32.5245 9.24077C32.1549 9.98168 31.6361 10.5872 30.968 11.0574C30.2999 11.5134 29.5181 11.7414 28.6226 11.7414H24.1023V17.1914H22.1833ZM24.1023 10.0316H28.516C29.0419 10.0316 29.4968 9.88907 29.8806 9.6041C30.2786 9.31913 30.5842 8.93443 30.7974 8.44998C31.0249 7.96554 31.1386 7.43835 31.1386 6.86841C31.1386 6.26998 31.0106 5.73567 30.7548 5.26547C30.4989 4.78103 30.1649 4.40345 29.7527 4.13273C29.3404 3.86201 28.8856 3.72665 28.388 3.72665H24.1023V10.0316Z" fill="black"/>
<path d="M33.7439 13.9641C33.7439 13.2517 33.9429 12.639 34.3409 12.1261C34.7531 11.5989 35.3146 11.1928 36.0253 10.9078C36.736 10.6229 37.5605 10.4804 38.4987 10.4804C38.9962 10.4804 39.5221 10.5231 40.0765 10.6086C40.6309 10.6799 41.1213 10.7938 41.5477 10.9506V10.1384C41.5477 9.28351 41.2918 8.61384 40.7801 8.12939C40.2684 7.6307 39.5434 7.38136 38.6053 7.38136C37.994 7.38136 37.4041 7.49534 36.8355 7.72332C36.2812 7.93704 35.6913 8.25051 35.0658 8.66371L34.3835 7.33861C35.1085 6.83992 35.8334 6.46946 36.5584 6.22724C37.2833 5.97077 38.0367 5.84253 38.8185 5.84253C40.24 5.84253 41.3629 6.24149 42.1874 7.03939C43.0118 7.82305 43.424 8.92018 43.424 10.3308V15.0541C43.424 15.2821 43.4667 15.4531 43.552 15.567C43.6515 15.6668 43.8078 15.7238 44.0211 15.738V17.1914C43.8363 17.2199 43.6728 17.2412 43.5306 17.2555C43.4027 17.2697 43.2961 17.2768 43.2108 17.2768C42.7702 17.2768 42.4361 17.1557 42.2087 16.9135C41.9955 16.6713 41.8746 16.4148 41.8462 16.1441L41.8036 15.4388C41.3203 16.0657 40.6877 16.5502 39.9059 16.8921C39.1241 17.2341 38.3494 17.4051 37.5818 17.4051C36.8427 17.4051 36.1817 17.2555 35.5989 16.9563C35.0161 16.6428 34.5612 16.2296 34.2343 15.7167C33.9073 15.1895 33.7439 14.6053 33.7439 13.9641ZM40.9933 14.7549C41.1639 14.5554 41.299 14.3559 41.3985 14.1565C41.498 13.9427 41.5477 13.7646 41.5477 13.6221V12.2329C41.1071 12.0619 40.6451 11.9337 40.1618 11.8482C39.6785 11.7485 39.2023 11.6986 38.7332 11.6986C37.7808 11.6986 37.0061 11.891 36.4091 12.2757C35.8263 12.6461 35.5349 13.1591 35.5349 13.8145C35.5349 14.1707 35.6273 14.5198 35.8121 14.8617C36.0111 15.1895 36.2954 15.4602 36.665 15.6739C37.0488 15.8876 37.5179 15.9945 38.0722 15.9945C38.655 15.9945 39.2094 15.8805 39.7353 15.6525C40.2613 15.4103 40.6806 15.1111 40.9933 14.7549Z" fill="black"/>
<path d="M46.1556 20.2263C46.3404 20.2405 46.5252 20.2548 46.71 20.269C46.8947 20.2975 47.0369 20.3117 47.1364 20.3117C47.3638 20.3117 47.5628 20.2334 47.7334 20.0766C47.904 19.9199 48.0888 19.6136 48.2878 19.1576C48.501 18.7159 48.7711 18.0605 49.098 17.1914L44.3859 6.03489H46.3688L50.1215 15.2892L53.5117 6.03489H55.3667L49.9509 20.1194C49.823 20.4471 49.6311 20.7534 49.3752 21.0384C49.1336 21.3376 48.8208 21.5727 48.437 21.7437C48.0532 21.9147 47.5913 22.0002 47.0511 22.0002C46.9232 22.0002 46.7881 21.9931 46.646 21.9788C46.5181 21.9646 46.3546 21.9361 46.1556 21.8933V20.2263Z" fill="black"/>
</svg>
