<svg width="14" height="16" viewBox="0 0 14 16" fill="none" xmlns="http://www.w3.org/2000/svg">
<path fill-rule="evenodd" clip-rule="evenodd" d="M13.283 0.962381V0H11.4587L0.117864 10.5494C0.251931 11.2601 0.496718 11.931 0.833379 12.5432L13.283 0.962381ZM1.23215 13.1811C1.60305 13.7066 2.04695 14.1758 2.54887 14.5735L13.283 4.58846V1.9712L1.23215 13.1811ZM5.13432 15.8263C4.42848 15.6607 3.76579 15.3812 3.16618 15.0081L13.283 5.59727V8.24626L5.13432 15.8263ZM6.05943 15.9746C6.25124 15.9914 6.44538 16 6.64151 16C10.2346 16 13.1613 13.1143 13.2793 9.50943H13.283V9.28302V9.25507L6.05943 15.9746ZM7.53789 0H10.3742L0.00930119 9.64158C0.00701601 9.59764 0.00514835 9.55359 0.00370216 9.50943H0V9.28302V7.01185L7.53789 0ZM6.45339 0H3.65104L0 3.39624V6.00303L6.45339 0ZM0 0H2.56654L0 2.38743V0Z" fill="#FD4B1E"/>
</svg>